<svg transform="scale(1)" id="_0444_wearing_a_mask" xmlns="http://www.w3.org/2000/svg" xmlns:xlink="http://www.w3.org/1999/xlink" viewBox="0 0 500 500" class="show_show__wrapper__graphic__5Waiy "><title>React</title><defs><style>.cls-1{fill:url(#linear-gradient);}.cls-1,.cls-2,.cls-3,.cls-4,.cls-5,.cls-6,.cls-7,.cls-8,.cls-9,.cls-10,.cls-11{stroke-width:0px;}.cls-2{isolation:isolate;opacity:.18;}.cls-2,.cls-11{fill:#5777ba;}.cls-3{fill:url(#linear-gradient-4);}.cls-4{fill:url(#linear-gradient-2);}.cls-5{fill:url(#linear-gradient-3);}.cls-6{fill:url(#linear-gradient-5);}.cls-7{fill:#ffffff;}.cls-8{fill:#080608;}.cls-9{fill:#352e2e;}.cls-10{fill:#f38a6b;}</style><linearGradient id="linear-gradient" x1="382.96" y1="2929.21" x2="197.23" y2="2944.14" gradientTransform="translate(-84.12 3343.09) scale(1 -1)" gradientUnits="userSpaceOnUse"><stop offset="0" stop-color="#000"></stop><stop offset=".13" stop-color="#000" stop-opacity=".69"></stop><stop offset="1" stop-color="#000" stop-opacity="0"></stop></linearGradient><linearGradient id="linear-gradient-2" x1="317.41" y1="3137.97" x2="344.73" y2="3143.91" xlink:href="#linear-gradient"></linearGradient><linearGradient id="linear-gradient-3" x1="225.82" y1="3143.75" x2="312.9" y2="3148.58" xlink:href="#linear-gradient"></linearGradient><linearGradient id="linear-gradient-4" x1="242.46" y1="3151.31" x2="342.36" y2="3150.2" xlink:href="#linear-gradient"></linearGradient><linearGradient id="linear-gradient-5" x1="291.19" y1="3115.23" x2="282.7" y2="3094.13" xlink:href="#linear-gradient"></linearGradient></defs><g id="background"><path class="cls-2" d="M482.67,393.51c-2.36,4.66-5.38,8.95-8.97,12.74-17.07,17.91-44.63,21.23-69.17,17.85-24.53-3.38-48.06-12.27-72.68-14.64-39.15-3.77-77.69,9.14-114.84,21.79-37.15,12.66-75.69,25.7-114.84,22.19-36.87-3.29-74.61-25.36-85.99-59.95-.71-2.14-1.31-4.32-1.79-6.53-11.65-52.49,37.85-101.62,34.47-155.3-.94-14.99-6.03-29.42-8.16-44.29-7.1-49.71,23.49-102.32,70.12-120.8,81.83-32.4,170.33,27.41,255.58,11.42,84.98-15.88,96.1,24.17,88.05,106.71-2.71,28.15.31,56.57,8.87,83.52,7.41,23.26,18.92,45.22,24.16,69.06,4.11,18.69,3.65,39.56-4.82,56.22Z"></path><path class="cls-11" d="M482.67,393.51c-2.36,4.66-5.38,8.95-8.97,12.74-17.07,17.91-44.63,21.23-69.17,17.85-24.53-3.38-48.06-12.27-72.68-14.64-39.15-3.77-77.69,9.14-114.84,21.79-37.15,12.66-75.69,25.7-114.84,22.19-36.87-3.29-74.61-25.36-85.99-59.95l466.49.03Z"></path><path class="cls-1" d="M87.67,410.01c-3.77-3.42-1.03-9.02,3.92-11.39s11.26-2.45,17.16-2.44c44.88,0,91.35-2.48,135.99.25-14.2,12.78-44.61,12.45-64.2,13.3-30.89,1.34-61.92,1.44-92.87.29Z"></path></g><g id="character"><path class="cls-11" d="M189.1,208.36c-.6-10.03-.8-20.08-.61-30.16.14-7.28.72-15.18,5.49-20.68,2.18-2.32,4.72-4.26,7.53-5.76,4.2-2.47,8.54-4.7,12.99-6.68,7.1,1.55,15.11-2.61,21.53.72,3.12,1.64,5.22,4.7,7.01,7.74,8.98,15.39,12.59,33.45,13.05,51.26.46,17.81-2,35.56-4.48,53.21-15.86,3.31-32.27.46-48.22-2.41-1.42-.17-2.79-.61-4.05-1.31-3.3-2.08-3.5-6.69-3.63-10.58-.3-10.54-5.99-24.77-6.62-35.34Z"></path><path class="cls-10" d="M238.68,128.68c0,2.19-.09,4.57-1.5,6.25-1.13,1.21-2.65,1.97-4.29,2.14-1.63.14-3.27.14-4.89,0-.35-.09-.71.12-.8.47-.02.09-.03.18-.01.26-.34,3.24-.34,6.51,0,9.75.1.52.06,1.06-.13,1.55-.38.58-.99.98-1.67,1.1-1.2.41-2.46.63-3.73.65-2.71,0-5.22-1.37-7.6-2.69.18-4.7-.07-9.41-.74-14.07-.86-6.02-2.45-12.05-1.79-18.09.14-2.38,1-4.66,2.48-6.53,2.17-2.45,5.68-3.24,8.95-3.24,4.34-.07,8.62,1.1,12.32,3.38,1.31.91,1.5,2.09,1.81,3.64.47,2.38.85,4.76,1.11,7.16.3,2.74.46,5.49.48,8.25Z"></path><path class="cls-9" d="M232.4,111.11c-3.08.7-6.46-.12-9.38,1.08-4.07,1.66-5.81,6.94-4.45,11.12-1.17.43-1.38-1.7-2.3-2.61s-2.96.3-3.11,1.77c.08,1.48.53,2.92,1.31,4.19,1.11,2.6,1.3,5.51.55,8.23-.18.64-.65,1.4-1.31,1.23-.23-.09-.43-.24-.57-.43-1.41-1.81-.7-4.78-2.32-6.41-.5-.41-1.02-.79-1.58-1.12-2.48-1.8-3.04-5.34-2.47-8.35.3-.96.35-1.99.13-2.98-.32-.68-.72-1.32-1.19-1.91-1.28-2.17-.55-4.97,1.62-6.25.94-.55,2.04-.75,3.12-.56-.3-3.14,1.99-5.92,5.13-6.23,1.54-.15,3.07.33,4.24,1.33.8-1.56,2.01-2.86,3.51-3.76,1.59-.78,3.52-.22,4.44,1.31,3.07-2.78,7.57-4.91,10.11-.37,2.54,4.54-.68,9.61-5.48,10.7Z"></path><path class="cls-7" d="M221.45,124.5c.91.63,1.93,1.07,3.01,1.31,1.1.08,2.2-.04,3.26-.34,3.4-.72,6.87-1.06,10.35-1.02.29-.03.58.04.84.18.2.15.34.36.42.6,1.37,3.05,1.23,6.56-.38,9.49-.2.43-.51.79-.9,1.06-.37.19-.77.29-1.19.3-3.31.37-6.64.62-9.97.76-.97.15-1.96-.02-2.83-.48-.42-.27-.72-.67-1.12-.95-.57-.35-1.19-.61-1.84-.77-3.14-.93-5.8-3.02-7.46-5.83,2.74,1.89,5.75,3.36,8.93,4.37.23.11.5.11.73,0,.19-.17.3-.42.29-.68l.47-4.14c.06-.25.06-.51,0-.76-.15-.29-.4-.53-.69-.68-1.64-1.02-5.14-2.36-5.99-4.12.97-.73,3.17,1.19,4.08,1.71Z"></path><polygon class="cls-8" points="199.36 254.33 204.87 395.15 218.84 395.15 236.92 257.12 199.36 254.33"></polygon><polygon class="cls-8" points="220.29 256.15 229.81 395.15 243.77 395.15 253.3 257.12 220.29 256.15"></polygon><path class="cls-8" d="M203.84,403.06c4.67.68,9.38.94,14.09.77,2.08.1,4.17-.12,6.19-.67,1.07-.5,2.23-.78,3.41-.85.06-.84-.26-1.67-.89-2.24-2.54-2.7-5.94-4.43-9.62-4.89-3-.5-7.52-1.04-10.44-.07-2.92.98-2.82,5.34-2.74,7.95Z"></path><path class="cls-8" d="M229.57,402.01c4.67.68,9.38.94,14.09.77,2.09.1,4.18-.12,6.2-.67,1.07-.5,2.23-.78,3.41-.85.06-.84-.27-1.67-.89-2.24-2.54-2.7-5.94-4.43-9.62-4.89-3.01-.5-7.53-1.04-10.44,0-2.91,1.04-2.83,5.25-2.75,7.88Z"></path><path class="cls-11" d="M198.99,218.5l13.25,10.58c-1.08,3.03-2.39,5.97-3.92,8.8-.39.9-1.02,1.68-1.83,2.24-1.63.95-3.69.08-5.36-.78l-15.66-8.18c-2.66-1.24-5.15-2.82-7.4-4.71-4.42-4.07-6.37-10.3-6.53-16.31-.16-6.02,1.37-11.93,2.86-17.75l4.08-16.09c2.61-10.26,5.85-21.43,14.62-27.41,2.71-1.67,5.58-3.07,8.57-4.16.91-.3,1.72-.82,2.39-1.5.55-.82.91-1.75,1.07-2.73.82-3.25,3.43-6.19,6.71-5.46-.26,1.08,1,1.88,2.06,2.27,2.61.99,5.3,1.86,8.07,2.61.55.1,1.08.33,1.53.67.75.94,1.01,2.18.68,3.34l-1.31,10.13c-.18,1.49,3.42,2.31,4.4,1.16.81-1.29,1.11-2.82.85-4.32l-.78-14.36c5.65.12,9.72,7.41,6.84,12.27,3.92-.87,7.97,1.17,10.62,4.16,2.65,2.99,4.11,6.81,5.55,10.53,2.04,5.31,4.07,10.62,5.64,16.09,6.04,20.97,5.04,43.25,3.46,65.02-.4,5.55-1.31,11.94-6.15,14.77-2.33,1.14-4.89,1.74-7.48,1.74-17.94,1.28-35.97.63-53.78-1.93.26-7.14,1.02-18.56,1.31-25.7,3.55,1.03,5.32,9.14,8.9,10,3.22.85,6.68-.93,8.78-3.51,1.95-2.72,3.36-5.78,4.16-9.03.99-1.62.48-3.73-1.14-4.72-.15-.09-.31-.17-.48-.24-4.49-2.85-10.11-4.61-14.58-7.49Z"></path><path class="cls-4" d="M252.76,197.78c-1.96-7.77-3.31-15.69-4.02-23.67,8.44,16.37,11.84,34.89,9.75,53.19,0-1.53-3.03-3.05-3.26-4.89-.3-2.39.94-5.55.84-8.12-.26-5.68-1.92-11.08-3.3-16.51Z"></path><path class="cls-10" d="M211.48,242.99c.22.14.48.2.74.17.19-.07.35-.19.47-.35,2.5-2.73,4.25-6.06,5.06-9.67-1.89-.25-3.66-1.05-5.09-2.31-.27-.23-.59-.51-.93-.43s-.5.38-.64.67l-1.98,3.92c-.83,1.21-1.49,2.53-1.97,3.92-.25,1.91,2.84,3.33,4.33,4.1Z"></path><path class="cls-5" d="M204.36,220.81l-6.2-5.22c-1.89-1.59-3.92-3.33-4.57-5.7-.65-2.38,0-4.82.78-7.14l4.78-15.28-7.2-5.86,5.82.9c.55.14,1.13.1,1.66-.12.54-.4.9-1.01.98-1.68,1.5-6.06.87-12.45-1.8-18.09l4.16,3.41c.28.29.65.48,1.04.55.67,0,1.16-.59,1.53-1.14l5.14-7.69c-2.49,6.31-4.29,12.87-5.36,19.58,7.06-.89,14.21-.86,21.26.08-4.27.91-8.51,2.01-12.69,3.28-1.39.33-2.7.94-3.85,1.8-1.62,1.64-2.5,3.88-2.41,6.19-.08,2.27.26,4.57,0,6.83,6.54-.48,13.11-.2,19.58.84l-10.44,1.49c-1.9.12-3.74.68-5.38,1.64-3.31,2.31-3.5,7.07-3.34,11.12l24.8.14c-5.93.55-11.79,1.66-17.5,3.34-2.12.55-4.06,1.66-5.6,3.22-1.53,1.64-1.78,4.1-.61,6.02.67.76,1.44,1.42,2.3,1.96,2.45,1.89,4.05,4.67,4.46,7.74-7.09-5.65-13.6-11.98-19.45-18.91"></path><path class="cls-3" d="M229.96,153.15c-1.19,5.04-2.7,10.44-.59,15.18,4.45-.13,8.91.07,13.34.6l-11.18,1.74c-.67,6.54-.31,13.15,1.08,19.58,4.68-.24,9.37-.1,14.03.39-3.48.65-6.93,1.42-10.34,2.31-.63.09-1.22.4-1.64.87-.31.62-.38,1.34-.2,2.01l2.08,13.17c2.76-.57,5.59-.75,8.4-.52-1.17,1.63-3.68,1.31-5.4,2.34-2.02,1.17-2.53,3.92-2.44,6.21.09,2.3.54,4.78-.37,6.94,2.94.64,5.97.72,8.94.23l-5.85.99c-.68.03-1.32.3-1.83.76-.42.61-.6,1.34-.51,2.08,0,4.96.08,9.91.23,14.86-2.44-20.1-4.87-40.23-8.86-60.03-1.57-7.74-3.37-15.5-3.33-23.39-.04-.85.06-1.71.29-2.53.52-1.11,1.14-2.16,1.87-3.15.99-1.81,1.44-3.86,1.31-5.91,0-1.31-1.31-4.32,0-5.22,3-2.32,1.28,9.16.97,10.49Z"></path><path class="cls-10" d="M254.9,222.72c-.38,2-.68,3.99-.9,6.02-.12.8-.12,1.61,0,2.4.24.96.63,1.88,1.17,2.71l2.36,4.1c.26.46.59.97,1.11,1.06.44.04.87-.15,1.15-.5.57-.82.85-1.8.8-2.79.26-2.92.09-5.85-.51-8.72-.68-2.6-2.7-3.47-5.18-4.28Z"></path><path class="cls-6" d="M193.47,241.24c.61,1.07,1.42,2.01,2.39,2.77l5.61,5c.82.73,1.93,1.5,2.91,1.02.43-.26.79-.63,1.04-1.06.94-1.26,2.14-2.3,3.52-3.05.85-.47,1.89-.98,2.02-1.93.13-.95-.89-1.88-1.8-2.43l-2.13-1.31c-.27-.2-.59-.33-.93-.38-.37,0-.74.09-1.08.25-2.75.93-5.65-.73-8.08-2.31-.84-.55-2.75-2.38-3.71-1.31-.95,1.07-.22,3.72.22,4.74Z"></path></g></svg>